<svg id="Capa_1" data-name="Capa 1" xmlns="http://www.w3.org/2000/svg" viewBox="0 0 103.79 47.26"><defs><style>.cls-1,.cls-2{fill:none;stroke:#1d1d1b;stroke-miterlimit:10;}.cls-1{stroke-width:2.5px;}.cls-3{font-size:10px;fill:#1d1d1b;font-family:KeepCalm-Medium, Keep Calm;font-weight:500;}</style></defs><polyline class="cls-1" points="38.57 13.45 1.25 13.45 1.25 46.01 102.53 46.01 102.53 13.45 65.54 13.45"/><path class="cls-2" d="M64,39.29" transform="translate(-3.42 -27.49)"/><path class="cls-2" d="M64,42.81" transform="translate(-3.42 -27.49)"/><path class="cls-2" d="M53.93,45.35h4.69s1.09,0,1.61-1.54a6.43,6.43,0,0,0-.36-3.71s-1.78-2.22-3.07,1.78l-2.87,0" transform="translate(-3.42 -27.49)"/><path class="cls-2" d="M53.93,34.69h3.56s1.17-.2,1.21,1.3,0,3.47,0,3.47" transform="translate(-3.42 -27.49)"/><polyline class="cls-2" points="50.12 0.82 52.99 3.29 52.99 0.5 55.25 0.5 55.25 5.06 59.08 8.13"/><path class="cls-2" d="M65.11,31.18" transform="translate(-3.42 -27.49)"/><line class="cls-2" x1="54.51" y1="20.56" x2="52.29" y2="17.85"/><polyline class="cls-2" points="51.06 0.82 48.19 3.29 48.19 3.29 45.93 5.06 45.93 5.06 42.1 8.13"/><path class="cls-2" d="M53.93,45.35H49.25s-1.09,0-1.61-1.54A6.34,6.34,0,0,1,48,40.1s1.78-2.22,3.07,1.78l2.86,0" transform="translate(-3.42 -27.49)"/><path class="cls-2" d="M53.93,34.69H50.38s-1.17-.2-1.21,1.3,0,3.47,0,3.47" transform="translate(-3.42 -27.49)"/><line class="cls-2" x1="46.51" y1="20.56" x2="48.73" y2="17.85"/><text class="cls-3" transform="translate(6.42 32.44)">VM MODULARES</text><text x="-3.42" y="-27.49"/></svg>